<?xml version="1.0" encoding="UTF-8"?>
<svg id="Layer_2" data-name="Layer 2" xmlns="http://www.w3.org/2000/svg" viewBox="0 0 243 228.24">
  <g id="Layer_1-2" data-name="Layer 1">
    <g>
      <path d="m243,121.5c0,5.25-.33,10.43-.98,15.5H.98c-.65-5.07-.98-10.25-.98-15.5,0-6.29.48-12.47,1.4-18.5C10.31,44.68,60.69,0,121.5,0s111.19,44.68,120.1,103c.92,6.03,1.4,12.21,1.4,18.5Z" style="fill: #005f79; stroke-width: 0px;"/>
      <g>
        <path d="m58.85,50.57c-.13.26-.21.47-.34.73-.3.26-.6.51-.9.81.39-.56.81-1.07,1.24-1.54Zm28.41,144.2c-3.64-.9-7.1-2.14-10.4-3.64-.04-.09-.09-.17-.17-.26l-.04-.04c-.17-5.91-4.75-12.08-8.9-15.93-.56-.51-1.75-.21-1.67.69.6,4.8,2.52,9.46,5.78,13.02-5.56-3.13-10.57-7.07-15.14-11.65.09-.13.13-.3.13-.47.04-3.98-.51-7.84-1.88-11.61-.98-2.7-2.27-6.25-4.92-7.67-.6-.3-1.33.09-1.33.77-.09,4.67.9,9.34,3.04,13.45-.77-.9-1.5-1.84-2.22-2.78-4.62-6.08-8.77-12.72-12.15-19.66.04-.09.09-.21.04-.34s-.04-.26-.09-.39c.13-.04.3-.13.39-.3,4.28-6.34,3.59-15.76,1.67-22.78-.21-.81-1.28-.86-1.71-.21-3.94,5.74-3.98,12.33-2.7,18.76-2.27-5.35-4.02-10.92-5.13-16.62-.47-2.4-.81-4.8-.98-7.15.13,0,.3-.04.43-.13,6.29-3.81,9.8-12.29,10.78-19.27.13-.9-.86-1.67-1.63-.94-4.36,4.2-7.79,9.21-9.8,14.86.13-8.95,2.22-17.56,5.73-25.74.13.13.34.21.56.21,7.36-.34,14.33-6.81,18.05-12.72.43-.69-.3-1.67-1.07-1.41-5.35,1.8-10.27,4.37-14.63,7.88,4.02-7.71,9.15-14.95,14.89-21.59h.04c3.64-1.8,7.87-3.3,10.82-6.17,2.52-2.48,3.89-5.87,5.22-9.08.43-1.03-.86-1.58-1.63-1.11-.09-.04-.13-.04-.26-.04-3.29.39-6.2,1.67-8.6,3.98-2.61,2.57-3.85,6.04-5.78,9.08-4.41,4.75-8.43,10.02-11.94,15.63,1.03-7.92,2.35-16.4.3-24.2-.26-.94-1.41-.94-1.88-.26-5.73,8.05-6.37,19.53-.34,27.62-3.81,6.6-6.8,13.66-8.73,20.86-.17-3.08-.43-6.12-.77-9.17-.21-2.01.21-6.04-1.54-7.45-.34-.3-.81-.39-1.2-.17-6.63,4.03-3.76,19.36,1.97,22.96.04.04.09.04.17.04-.98,5.57-1.33,11.18-.86,16.83v.04c0,.09,0,.17.04.26.17,2.01.43,3.98.81,6,.26,1.41.6,2.78.94,4.15-1.54-2.61-3.47-5.22-5.26-7.49-2.1-2.66-4.58-4.75-7.91-5.65-.77-.21-1.37.47-1.24,1.24,1.63,7.71,7.44,14.43,15.14,16.53.21.04.39,0,.51-.09,2.35,7.67,5.78,15.12,9.88,22.06-1.67-1.37-3.42-2.61-5.3-3.64-2.52-1.41-6.07-3.6-9.03-2.66-.51.17-.9.73-.73,1.24,2.52,7.79,10.48,12.81,18.52,10.62h.04c1.75,2.66,3.64,5.22,5.56,7.67,3.04,3.9,6.46,7.67,10.22,11.05-4.71-2.4-10.61-2.96-15.53-2.44-.81.09-1.33,1.03-.68,1.67,5.35,5.31,13.48,7.45,20.62,4.67.09-.04.13-.09.17-.13,6.8,5.14,14.55,8.91,23.1,10.11.51.17.81-.73.17-.9Z" style="fill: #eaeaea; stroke-width: 0px;"/>
        <path d="m185.26,52.07c-.3-.26-.6-.51-.9-.81-.13-.26-.21-.47-.34-.69.43.47.86.99,1.24,1.5Zm-29.35,143.69c8.56-1.2,16.3-4.97,23.1-10.11.04.04.13.09.17.13,7.14,2.78,15.27.64,20.62-4.67.64-.64.13-1.58-.68-1.67-4.88-.47-10.82.09-15.53,2.44,3.76-3.38,7.19-7.11,10.22-11.05,1.93-2.48,3.76-5.05,5.56-7.67h.04c8.04,2.14,16-2.83,18.52-10.62.17-.56-.21-1.07-.73-1.24-2.95-.99-6.5,1.2-9.03,2.66-1.88,1.07-3.64,2.27-5.3,3.64,4.11-6.98,7.53-14.39,9.88-22.06.13.09.3.13.51.09,7.7-2.1,13.52-8.82,15.14-16.53.17-.73-.47-1.41-1.24-1.24-3.34.86-5.78,2.96-7.91,5.65-1.8,2.27-3.72,4.88-5.26,7.49.34-1.37.64-2.78.94-4.15.39-2.01.64-3.98.81-6,.04-.09.04-.17.04-.26v-.04c.47-5.61.13-11.26-.86-16.83.04,0,.09-.04.17-.04,5.73-3.6,8.6-18.93,1.97-22.96-.39-.26-.86-.13-1.2.17-1.75,1.46-1.33,5.44-1.54,7.45-.34,3.04-.6,6.12-.77,9.17-1.93-7.24-4.96-14.26-8.73-20.86,6.03-8.09,5.39-19.57-.34-27.67-.47-.69-1.67-.69-1.88.26-2.05,7.79-.73,16.27.3,24.2-3.51-5.61-7.53-10.88-11.98-15.67-1.88-3.04-3.12-6.51-5.78-9.08-2.4-2.31-5.3-3.6-8.6-3.98-.09,0-.17,0-.26.04-.77-.47-2.01.09-1.63,1.11,1.33,3.21,2.7,6.6,5.22,9.08,2.95,2.87,7.19,4.37,10.82,6.17h.04c5.73,6.64,10.87,13.88,14.89,21.59-4.36-3.51-9.28-6.08-14.63-7.88-.81-.26-1.5.73-1.07,1.41,3.68,5.87,10.7,12.38,18.05,12.72.21,0,.39-.09.56-.21,3.47,8.18,5.6,16.79,5.73,25.74-2.01-5.65-5.43-10.66-9.8-14.86-.77-.73-1.75.04-1.63.94.98,6.98,4.49,15.46,10.78,19.27.17.09.3.13.43.13-.17,2.36-.51,4.75-.98,7.15-1.16,5.65-2.91,11.22-5.13,16.62,1.28-6.47,1.24-13.02-2.7-18.76-.43-.64-1.5-.6-1.71.21-1.93,7.02-2.61,16.49,1.67,22.78.13.17.26.26.39.3-.04.13-.04.26-.09.39-.04.13,0,.26.04.34-3.38,6.98-7.57,13.58-12.15,19.66-.73.94-1.45,1.88-2.22,2.78,2.1-4.11,3.08-8.78,3.04-13.45,0-.69-.73-1.07-1.33-.77-2.61,1.41-3.89,4.97-4.92,7.67-1.37,3.73-1.93,7.62-1.88,11.61,0,.17.04.34.13.47-4.53,4.58-9.58,8.52-15.14,11.65,3.25-3.55,5.22-8.22,5.78-13.02.13-.9-1.11-1.2-1.67-.69-4.15,3.85-8.73,10.02-8.9,15.93l-.04.04c-.09.09-.13.17-.17.26-3.29,1.5-6.76,2.7-10.4,3.64-.73.17-.43,1.07.21.99Z" style="fill: #eaeaea; stroke-width: 0px;"/>
        <g>
          <g id="Page-1">
            <g id="ahs-badge">
              <g id="icons8-guarantee">
                <polygon id="Path" points="183.71 208.2 155.91 208.2 139.98 228.24 113.78 166.86 164.84 166.86 183.71 208.2" style="fill: #e13f00; stroke-width: 0px;"/>
                <polygon id="Path-2" data-name="Path" points="136.26 166.86 109.33 228.24 93.21 208.2 65.07 208.2 84.17 166.86 136.26 166.86" style="fill: #fb4f14; stroke-width: 0px;"/>
                <path id="Path-3" data-name="Path" d="m189.68,123.33c-2.25-4.1-2.25-9.07,0-13.17l1.08-1.96c3.52-6.42,1.37-14.48-4.88-18.27l-1.91-1.16c-3.99-2.43-6.47-6.73-6.57-11.4l-.05-2.24c-.15-7.33-6.03-13.23-13.33-13.38l-2.24-.05c-4.67-.09-8.96-2.58-11.37-6.59l-1.16-1.92c-3.78-6.27-11.82-8.43-18.22-4.9l-1.96,1.08c-4.09,2.26-9.04,2.26-13.13,0l-1.95-1.08c-6.4-3.53-14.43-1.37-18.21,4.9l-1.16,1.92c-2.42,4-6.71,6.49-11.37,6.59l-2.24.05c-7.3.15-13.18,6.05-13.33,13.38l-.05,2.24c-.09,4.68-2.58,8.98-6.57,11.4l-1.91,1.16c-6.24,3.79-8.4,11.86-4.88,18.27l1.08,1.96c2.25,4.1,2.25,9.07,0,13.17l-1.07,1.96c-3.52,6.42-1.37,14.48,4.88,18.27l1.91,1.16c3.99,2.43,6.47,6.73,6.57,11.4l.05,2.24c.15,7.33,6.03,13.23,13.33,13.38l2.24.05c4.67.09,8.96,2.58,11.37,6.59l1.16,1.92c3.78,6.26,11.82,8.43,18.22,4.9l1.96-1.08c4.09-2.26,9.04-2.26,13.13,0l1.96,1.08c6.4,3.53,14.44,1.37,18.22-4.9l1.16-1.92c2.42-4,6.71-6.49,11.37-6.59l2.24-.05c7.3-.15,13.18-6.05,13.33-13.38l.05-2.24c.09-4.68,2.58-8.98,6.57-11.4l1.91-1.16c6.24-3.79,8.4-11.86,4.88-18.27l-1.09-1.96Z" style="fill: #ffa000; stroke-width: 0px;"/>
                <path id="Path-4" data-name="Path" d="m123.14,66.64c-27.24,0-49.33,22.44-49.33,50.11s22.09,50.11,49.33,50.11,49.33-22.44,49.33-50.11-22.09-50.11-49.33-50.11Z" style="fill: #ffb300; stroke-width: 0px;"/>
                <path id="Shape" d="m122.52,170.62c-29.61,0-53.7-24.17-53.7-53.87s24.09-53.87,53.7-53.87,53.7,24.17,53.7,53.87-24.09,53.87-53.7,53.87Zm0-99.45c-25.06,0-45.44,20.45-45.44,45.58s20.39,45.58,45.44,45.58,45.44-20.45,45.44-45.58-20.39-45.58-45.44-45.58Z" style="fill: #ffca28; stroke-width: 0px;"/>
              </g>
            </g>
          </g>
          <g style="opacity: .8;">
            <path id="new_figures" data-name="new figures" d="m153.49,102.42c-.32.25-.6.47-.88.69-.02-.01-.03-.03-.05-.04.29-.42.59-.85.88-1.26-.09-.17-.23-.13-.36-.13-.06.06-.12.11-.17.17-.04.05-.05.11-.09.16-.05.06-.11.11-.17.17-.05.05-.1.09-.14.14-.04.06-.07.13-.12.19-.04.05-.09.1-.14.14-.05.04-.07.13-.2.12.14-.31.28-.59.4-.88.1-.24.23-.47.16-.76-.06,0-.11,0-.18,0-.39.44-.56,1.02-.89,1.57-.09-.58.12-1.05.19-1.58-.06-.02-.16-.06-.29-.11-.16.42-.32.8-.4,1.22-.09.45-.16.92-.62,1.2-.09-.13-.17-.25-.26-.37-.11-.13-.24-.24-.38-.38-.09.1-.16.19-.26.3.08.18.18.38.22.48-.02.28-.04.47-.05.66,0,.24-.09.47-.22.66-.12.18-.21.35-.27.56-.06.21-.16.42-.26.61-.1.16-.25.29-.36.45-.16.23-.32.46-.41.74-.15.51-.34,1.02-.52,1.55-.05-.04-.1-.06-.13-.09-.1-.09-.18-.19-.28-.28-.16-.14-.37-.18-.57-.26-.48-.21-.84-.58-1.19-.95-.02-.02-.01-.09-.04-.1-.32-.21-.58-.49-.91-.67-.39-.23-.73-.55-1.22-.63.08-.04.14-.07.18-.09,0-.07.01-.14.01-.14.49-.3.89-.68,1.4-.78.02-.07.03-.11.05-.14.09-.14.21-.25.28-.4.1-.18.16-.38.24-.57.13-.27.1-.54,0-.81.07-.1.14-.18.04-.31-.08-.11-.1-.25-.13-.38-.04-.15-.15-.1-.23-.24,0,.21.12.23.07.41-.05.05-.15.1-.19.13-.16-.22-.33.1-.49-.02-.02-.04-.04-.09-.06-.14-.05.05-.06.05-.11.07-.29.21-.61.28-.95.23,0-.04,0-.08,0-.11.03-.01.05-.03.07-.03.16,0,.3-.07.46-.09.13-.02.33-.08.48-.08-.15-.06-.34-.08-.33-.05-.19.03-.19.05-.35.08-.17.03-.24.05-.4.1-.17.06-.32.04-.49.02.16-.2.06-.4.09-.54-.08-.22-.26-.12-.36-.17.02-.11.04-.2.05-.3,0-.1-.02-.23.03-.3.1-.13.08-.27.04-.38-.08-.21-.06-.43-.07-.64,0-.04-.02-.07-.03-.11-.07-.27-.2-.53-.27-.8-.06-.18-.13-.32-.26-.45-.11-.11-.21-.24-.34-.33-.24-.18-.46-.41-.72-.35-.29-.09-.5-.19-.71-.21-.16-.02-.34-.09-.48.07-.25-.03-.42.16-.63.22-.36.11-.68.26-.99.49-.34.25-.58.58-.79.92-.23.37-.28.81-.42,1.21-.03.11-.07.22-.08.32-.02.37.12.69.4.93,0,.07,0,.12,0,.16-.11.04-.22.08-.3.11-.06.51.13.92.27,1.35.07.21.21.34.41.34.1.21.17.41.28.59.11.17.25.32.37.48-.06.19-.12.37-.19.58-.22.06-.45.14-.68.2-.31.08-.63.2-.95.19-.41-.02-.78.12-1.15.2-.38.09-.75.3-1.09.52-.7.45-1.38.95-2.07,1.42-.3.2-.61.41-.99.49-.16.04-.31.15-.46.24-.11.07-.21.15-.33.24.02-.49.03-.94.07-1.39.04-.47-.2-.9-.16-1.38.08-.1.18-.2.25-.32.11-.18.26-.36.3-.55.09-.46.23-.91.33-1.37.03-.14.05-.27.08-.4.03-.14.02-.29.09-.4.08-.14.02-.3.08-.4.16-.26.06-.51-.02-.73-.14-.41-.36-.76-.81-.94-.26-.1-.51-.24-.77-.35-.52-.22-1.02-.49-1.52-.72-.24-.11-.47-.23-.68-.19-.17.08-.28.12-.41.18v-.73c.6-.35.96-.92,1.24-1.55.12-.05.22-.1.31-.14.09-.15.19-.29.26-.45.07-.17.12-.35.16-.53.07-.27.07-.56.19-.79.09-.18-.03-.26-.03-.39.01-.23-.21-.17-.32-.24.23-.28.21-.64.31-.93-.03-.07-.06-.12-.07-.18-.01-.08-.01-.16,0-.24,0-.06.06-.11.07-.17.01-.06,0-.13,0-.2,0-.08-.01-.16,0-.24.01-.06.05-.11.07-.14-.05-.14-.09-.25-.14-.38.14-.33-.08-.92-.61-1.54.07-.04.14-.07.21-.11-.12-.21-.23-.39-.34-.57-.07-.1-.15-.19-.25-.25-.21-.13-.44-.22-.65-.35-.07-.04-.13-.07-.21-.07-.25,0-.48-.12-.67-.23-.21-.04-.42.06-.59-.06-.16-.11-.33-.12-.5-.11-.13-.09-.25-.17-.38-.26-.09.04-.17.08-.25.09-.11.01-.21,0-.32,0-.24.21-.47.43-.72.64-.11.09-.26.14-.39.2,0,0,0-.02,0-.03-.25.22-.5.43-.74.64.04.07.06.11.08.14-.07.22-.35.1-.41.32-.04.16-.15.3-.21.44.03.04.05.07.07.11-.06.09-.13.16-.17.25-.08.21-.16.42-.2.63-.04.23-.23.45-.05.72.04.07.06.22-.04.33-.08.09.03.25-.1.35.15.27.03.57.07.84.01.07.04.13.06.2-.1.14-.16.28-.14.46.04.46.12.92.31,1.34-.09.2.13.26.19.4.04.11.23.17.36.25.04.13.08.27.12.41.07.01.14.03.2.04.09.12.15.23.24.32.1.1.22.17.33.25-.03.23.02.45-.08.68-.22.56-.23.73-.81.92,0,0,0,0,0,0t0,0c-.62-.22-1.24-.16-1.85-.04-.38.21-.77.37-1.2.37-.49,0-.84.27-1.22.52-.08.27-.33.42-.49.63-.25.32-.48.65-.69.99-.25.4-.51.78-.83,1.12-.11.11-.26.18-.29.35-.28.25-.48.57-.82.77-.4.23-.74.55-.99.96-.11.2-.23.4-.39.55-.63.61-1.2,1.29-1.9,1.83-.38.29-.72.62-1.09.92-.11.09-.23.16-.33.25-.18.17-.34.38-.54.52-.2.14-.33.34-.45.46-.38,0-.52-.37-.84-.44-.08-.02-.14-.15-.2-.22-.16-.21-.25-.45-.52-.58-.13-.06-.24-.25-.26-.39-.09-.52-.34-.98-.58-1.43-.14-.26-.33-.5-.62-.65-.3-.16-.6-.33-.9-.51-.25-.15-.51-.3-.79-.39-.27-.09-.51-.24-.78-.33-.08-.03-.16-.1-.2-.17-.23-.39-.56-.64-.97-.81-.09-.04-.17-.1-.23-.14.06-.38.43-.61.38-.99.06-.06.11-.1.16-.15-.12-.11-.08-.23-.06-.38.08.04.13.07.19.1.02-.04.05-.1.07-.15.12.17.31.02.45.13v.19h.13v-.33c-.1-.03-.19-.06-.29-.09,0-.06-.01-.12-.02-.18-.1-.05-.2-.09-.3-.14.08-.07.17-.15.25-.22.09.09.08.26.29.24-.02-.05-.03-.09-.05-.15.09-.05.19-.11.28-.16.05.11.09.21.13.29h.21v-.12c-.06-.03-.11-.05-.17-.07.04-.08.06-.13.09-.18-.1-.06-.19-.11-.24-.14-.11.08-.19.14-.29.22-.04-.1-.07-.16-.13-.3.1.08.13.1.17.14.1-.13.19-.25.29-.38.02-.02.07-.01.12-.02v.11c.13.11.2.18.24.22-.01-.05-.03-.15-.07-.23-.04-.08-.1-.16-.17-.27.13.03.22.05.32.08v-.2c-.18-.13-.36-.26-.54-.39.13-.11.23.05.35.05.03-.06.05-.11.08-.16.03.03.06.05.08.07.07-.04.14-.07.22-.11v-.21c.11.04.19.07.27.1.01-.02.02-.03.03-.05-.09-.09-.17-.17-.25-.25,0-.08,0-.13.02-.18.11.03.2.14.31.02-.2-.1-.4-.19-.58-.28-.05.04-.07.06-.11.09-.03-.13-.05-.25-.07-.37.07-.03.16-.07.24-.11.02,0,.02-.04.02-.04-.06-.08-.11-.15-.16-.22.04-.05.07-.08.1-.11-.08-.05-.16-.11-.23-.16.05-.02.09-.04.11-.05-.01-.19.09-.34.14-.52h-.31s-.04.1-.06.16c-.11-.05-.19-.09-.26-.12.03-.07.06-.13.09-.18.09-.03.19-.05.24-.1.05-.05.05-.15.06-.22-.23.02-.42.04-.63.06v-.14c.05-.02.1-.04.15-.06-.09-.04-.16-.03-.22-.01-.08.02-.16.03-.28.05.06-.16.18-.26.07-.42-.1.03-.2.06-.32.1-.07-.1-.14-.21-.2-.3-.08-.01-.16-.03-.24-.05.04-.09.08-.17.12-.27-.07-.05-.14-.09-.19-.13v-.33s-.08-.07-.11-.1c-.04.04-.08.08-.12.11.03.03.05.06.1.12h-.41c-.01.13-.02.22-.03.32-.02,0-.03,0-.05.01-.05-.11-.1-.22-.15-.33-.04.01-.07.02-.12.04v.2h-.19c-.05-.09-.1-.16-.14-.23h-.42c-.28.34-.73.51-.95.96h-.32c-.05.14-.09.27-.14.4-.33-.07-.49-.33-.63-.55h-.23c.07.08.13.15.17.2-.04.13-.08.23-.13.39-.11-.14-.2-.26-.26-.33-.26.03-.4-.13-.56-.2-.19-.07-.36-.17-.57-.16-.13-.2-.36-.2-.54-.22-.21-.03-.38-.13-.57-.17-.19-.05-.39-.04-.56-.05-.08.06-.15.11-.24.18.22.16.42.14.6.06.13.11.24.22.4.36-.15,0-.3.05-.38,0-.19-.13-.4,0-.56-.09-.2-.12-.38-.02-.56-.07-.06.06-.1.1-.15.16.07.08.13.15.19.21-.06.02-.11.04-.17.06.01.05.02.09.04.14.1-.03.19-.09.26-.08.07,0,.14.09.22.14-.18.24-.44.15-.6.25-.1-.13-.19-.23-.24-.3h-.55s0,.08,0,.1c.12-.02.25-.04.42-.06-.06.08-.08.1-.11.14.08.12.17.24.24.34.15,0,.26.02.39.03-.25.13-.48.24-.74.37-.05-.02-.15-.05-.23-.09-.11.11-.2.21-.29.3.06.06.13.12.21.2h.26c-.08.08-.14.15-.21.21-.02-.02-.05-.04-.1-.08v.16h.29c.04-.08.09-.16.13-.22h.27c-.12.05-.17.08-.22.1v.27c-.07.06-.17.13-.29.22.16.02.27.04.42.06-.09.11-.14.19-.19.24.03.07.05.11.08.16-.07.03-.12.06-.19.09.02.05.04.09.07.16.09-.08.17-.14.25-.21v.38c-.06.02-.1.04-.16.06.02.05.03.09.05.17.1-.08.17-.13.25-.19.05.06.09.11.12.15-.04.06-.06.1-.09.14.06.02.1.04.16.06-.03.03-.06.06-.1.11.09.04.17.07.24.1.03.01.06.02.14.05-.1.06-.17.11-.2.13-.03.36.32.47.38.74-.05.02-.09.04-.14.05.24.18.53.11.86.16-.11.08-.17.13-.23.17.1.14.18.29.34.28.06-.03.09-.05.14-.08.02.21-.29.27-.12.48.21-.11.43-.21.6-.3.09.08.18.13.22.2.05.09.07.2.1.3-.08.03-.13.05-.17.06.04.05.07.1.09.13.08-.04.12-.06.18-.1.17.51.66.73.9,1.16-.04.03-.09.06-.13.1-.07.05-.13.12-.2.17-.15.11-.27.23-.37.38-.04.06-.02.15.03.2.03.03.06.07.09.1.01.07.02.14.04.22-.25.08-.52.15-.76.25-.26.11-.47.3-.65.53v.16c-.48.38-.65.98-1.03,1.44,0,.03,0,.05,0,.08-.05.38.02.75.1,1.12.05.23.05.46.06.68-.15.14,0,.35-.09.48-.12.18-.05.35-.07.53-.02.17-.01.34,0,.52.01.28-.06.55-.16.81-.08.21-.12.43-.18.63-.03.03-.06.06-.1.1-.09.07-.18.14-.26.21-.1.09-.12.24-.11.38-.18.14-.33.33-.49.48-.09.09-.07.19-.04.3.01.06.02.11.04.16.01.04.05.16.04.06,0,.05.03.09.06.12.03.13.05.26.13.38.03.04.06.1.08.15-.01.06-.02.12,0,.19,0,.03-.09.12-.13.2-.05.09-.1.43-.01.57,0,0,0,0,0,0,0,.07-.02.14-.04.21-.05.04-.11.08-.17.13-.11.11-.12.25-.1.39,0,.04,0,.08,0,.12,0,.09,0,.18,0,.27-.22.25-.48.42-.11.74.12.1.21.3.37.34.22.06.47-.1.72-.05.11.02.23,0,.32-.08.14-.13.37-.04.52-.15.16-.13.12-.43.28-.52.16-.09.09-.34.26-.42.07-.03.09-.09.08-.15.08-.05.18-.06.25-.13.12-.12.08-.26.11-.41,0-.04,0-.07-.01-.1,0-.14-.02-.29-.06-.45.43-.38.71-.85.78-1.45.02-.19.12-.36.2-.61.05.25.11.43.11.62,0,1.06,0,2.12,0,3.17,0,.08,0,.17-.03.22-.06.1-.04.17,0,.28.14.31.17.66.08.98-.07.24-.04.44.05.65.02.06.07.14.05.17-.13.2-.05.43-.07.64-.02.15.02.29-.07.45-.06.11-.06.31,0,.42.09.18.07.35.07.53-.01.4.05.8-.07,1.2-.09.3.1.61.07.92-.04.34.11.66.09,1,.13.17.02.39.09.56.19.48.04.94-.04,1.4-.06.39-.21.77-.21,1.18,0,.07-.02.14-.05.21-.13.34-.22.69-.2,1.07.02.43.06.86.15,1.29.08.36,0,.76.02,1.15,0,.11-.08.2-.07.28.01.14-.1.24-.09.37.02.27-.1.51-.2.75-.22.52-.18.94.24,1.35.15.14.33.25.47.4.24.27.54.47.84.66.27.17.6.27.9.19.24-.07.51-.01.7-.18.1-.08.2-.17.3-.24v-.56q.47-.34.48-.87c.27-.37.37-1,.39-1.31.03-.36-.14-.71-.08-1.08,0-.03-.02-.07-.03-.1-.09-.17-.06-.36-.02-.53.06-.26.13-.51.14-.77.02-.44,0-.87,0-1.31,0-.19-.05-.38-.08-.56,0-.05-.06-.08-.07-.13-.07-.27-.12-.55-.23-.81-.06-.13-.09-.29-.08-.44.03-.56-.09-1.12.08-1.67-.06-.2.08-.37.08-.56,0-.19.02-.39.08-.56.07-.18.02-.37.09-.52.09-.18.04-.35.07-.53.03-.18.07-.35.08-.52,0-.29.11-.57.17-.85.03-.16.13-.31.21-.47.03,0,.06.02.11.03,0,.05,0,.09,0,.12-.03.51.03,1.01-.06,1.52-.06.34-.09.73.06,1.08-.02.48.15.94.23,1.41.03.2.16.33.18.53.03.21.22.34.35.49.25.29.58.4.95.39.13,0,.26,0,.34,0,.23.15.42.27.6.39.16,0,.31.02.45-.07.31-.21.5-.51.54-.86.03-.21.07-.39.14-.58.11-.33.23-.67.19-1.03-.02-.19,0-.37,0-.56-.01-.19-.07-.38-.07-.56,0-.27-.1-.51-.24-.76-.06-.88.15-1.78.07-2.62.16-.36.37-.65.16-.99q.09-.17.09-.39c.08-.16.16-.3.23-.44.04-.31-.07-.63.07-.9-.02-.09-.06-.16-.06-.23.03-.44-.03-.88.06-1.32.08-.41.02-.84.02-1.27,0-.01,0-.03,0-.04-.15-.23,0-.5-.09-.72-.1-.25-.05-.49-.06-.72,0-.14.06-.27.07-.4.01-.16.01-.32,0-.48-.02-.29.04-.57.12-.85.19.16.32.36.49.51,0,0,0,0,0,0,.03.03.07.06.12.06.04,0,.07,0,.11,0,.02.04.03.08.04.13,0,.02.01.04.03.06.01.04.04.07.07.1,0,.01.01.02.02.03,0,0,.01,0,.02-.01.04.01.08.01.13-.01.12-.06.24-.1.36-.15.01.1,0,.21.09.3.01.01.03.02.05.03.17.2.43.29.6.4.3.14.49.03.69-.02.23-.05.36-.26.49-.37.18.03.3.04.42.07.44.12.48.11.84-.13.25-.17.49-.35.75-.5.19-.11.33-.27.52-.37.19-.1.41-.09.62-.15.39-.11.78-.21,1.16-.36.32-.13.59-.36.94-.41.05,0,.09-.09.15-.13.22-.15.44-.28.65-.43.33-.21.66-.42.94-.7.17-.17.33-.33.47-.47.48-.14.89-.34,1.25-.59.08.04.14.06.2.09.23.09.5.14.6.4.09.26.24.51.11.82-.09.2-.09.45-.1.67-.01.4,0,.79,0,1.19,0,.08-.01.18.03.22.11.14.09.31.04.41-.09.21-.05.41-.07.61,0,.05.02.13,0,.16-.15.16-.04.35-.07.53-.04.17-.07.34-.11.54-.17.24-.24.55-.27.85-.05.48-.05.97.14,1.44.05.13.09.27.08.4-.02.29.09.6-.07.88-.03.05-.03.16,0,.19.12.13.06.27.07.41,0,.08-.03.17,0,.23.14.33.18.69.36,1.01.06.1.11.23.11.35,0,.37.09.73.17,1.08.08.36.15.73.26,1.08.13.42.18.85.28,1.27.06.23,0,.51.1.71.09.18-.03.4.14.54-.02.22.11.4.16.61.11.55.31,1.06.46,1.59.09.29.18.59.27.89-.14.1-.26.18-.37.26-.29-.18-.51.07-.71.11-.05.08-.07.13-.11.16-.16.17-.21.39-.25.61-.03.21,0,.42-.01.64-.01.19.03.38-.04.58-.06.19-.03.41-.04.62-.02.29,0,.61-.1.87-.11.29.03.6-.14.85,0,.39-.06.78.08,1.16.11.3.17.63.44.85.08.07.15.15.23.23.06,0,.13,0,.19.03.33.12.81-.02.97-.3.14-.27.27-.55.36-.84.08-.26.1-.55.15-.85.02-.03.06-.1.13-.23,0,.32-.06.58.01.79.13.41.13.84.22,1.26.04.16.06.32.11.47.21.6.31,1.21.36,1.83,0,.05-.02.12,0,.16.12.17.09.35.07.53-.01.19.07.35.08.52.01.24-.01.48,0,.71.02.27.1.54.13.81.05.35.27.65.26,1.01.17.21.14.5.34.69.3.29.25.63.15.97.06.2.11.37.15.54.33.19.65.34.95.54.55.38,1.16.57,1.82.58.33.01.66.03,1-.06.33-.09.69-.05,1.03-.1.3-.04.63-.06.81-.35-.02-.29-.03-.56-.07-.82-.02-.12-.11-.23-.19-.32-.07-.08-.19-.13-.27-.2-.1-.09-.17-.22-.28-.27-.21-.09-.31-.24-.41-.42,0-.02,0-.04-.01-.07h.27s-.02-.04-.04-.05c.11-.08.21-.16.32-.23-.06-.16-.01-.3-.08-.47-.13-.34-.26-.68-.39-1.03-.21-.52-.41-1.05-.66-1.55-.2-.39-.36-.81-.62-1.17-.18-.25-.25-.56-.31-.86-.05-.23,0-.47-.01-.71-.01-.23-.08-.46-.07-.68,0-.4-.1-.78-.19-1.15-.09-.41-.22-.8-.21-1.22,0-.09.04-.22,0-.27-.13-.15-.04-.3-.07-.45-.03-.16-.06-.32-.08-.48,0-.02.02-.04.05-.08.1.03.21.1.31.09.31-.01.61,0,.92-.06.76-.15,1.34-.57,1.78-1.15.48-.62.69-1.39.82-2.16.04-.2.13-.39.08-.6.17-.26.06-.57.14-.85.09-.32,0-.68.08-1.04.06-.28.04-.58,0-.87-.03-.29.1-.56.08-.84-.02-.43.08-.86-.08-1.28.06-.52-.1-1.04-.08-1.55,0-.12-.02-.24-.04-.37.14-.11.29-.24.43-.34,0-.17.04-.31,0-.43-.08-.23-.1-.46-.16-.69-.06-.26-.06-.51-.07-.76,0-.2,0-.4,0-.6,0-.06,0-.13-.02-.19-.14-.41-.28-.81-.42-1.21-.11-.35-.27-.71-.18-1.07.09-.35.04-.7.06-1.04.01-.21.02-.43,0-.63-.03-.34.07-.65.11-.98h.57c.09-.06.18-.1.25-.18.24-.25.5-.47.81-.64.42-.24.85-.27,1.3-.15.17-.05.33-.09.43-.12.32.04.55.17.82.24.31.31.64.63.97.97.12.13.23.27.32.39,0,.25.01.46,0,.67-.03.44.03.87-.06,1.32-.08.38-.16.79-.1,1.19.02.1.05.19.07.3-.07.14-.15.29-.23.44,0,.15-.06.34.01.43.13.16-.03.38.15.5,0,.19,0,.37,0,.56-.01.23,0,.45-.06.68-.07.23-.01.5-.01.76.07.05.15.09.24.15,0,.17,0,.35,0,.53.01.19.06.37.08.56.03.37-.05.75.07,1.12.06.2.02.43.08.64.06.21.06.43.08.64.05.42.02.85.08,1.28.05.32.14.61.29.88.23.42.65.73.76,1.23.01.06.08.1.13.15.1.09.2.17.27.23-.01.28-.02.51-.07.74-.06.27-.05.59,0,.87.08.44.19.89.71,1.08.41,0,.67-.16.87-.52.02-.04.03-.1.06-.13.12-.15.19-.32.18-.52,0-.16,0-.31,0-.44.09-.07.16-.13.23-.17.28-.17.41-.42.4-.74,0-.62,0-1.24,0-1.87,0-.19-.01-.36-.16-.49-.02-.17.05-.36-.08-.52-.08-.1-.08-.21-.08-.32,0-.69,0-1.38,0-2.06,0-.35.04-.69.12-1.03.19.33.33.67.56.97.2.25.3.57.36.88.03.16.01.32.07.49.05.15.06.32.08.48.03.33.22.63.18.97.15.13.01.31.08.44.09.16.08.32.07.49-.02.47.04.93-.06,1.4-.07.3,0,.63-.02.95-.04.55.09,1.09.08,1.63,0,.04,0,.08.02.11.16.24.14.51.14.78,0,.36,0,.71,0,1.07,0,.15.05.31-.07.45-.04.04-.03.18,0,.22.13.13.03.28.08.41.19.34.22.47.22.87.12.1.24.21.37.31-.03.09-.08.2-.1.28.03.14.05.26.07.35.24.15.46.28.67.43.21.15.43.32.63.49.46.4,1.02.56,1.61.61.3.02.61,0,.91,0l.2-.2v-.48c-.26-.44-.75-.7-.95-1.19.08-.05.16-.1.25-.16-.05-.17.05-.33-.08-.47.12-.15.05-.32.07-.48.02-.2-.05-.41.07-.61.04-.07,0-.2-.02-.3-.01-.07-.06-.15-.05-.22.04-.23-.06-.43-.1-.64-.07-.38-.09-.47.02-.81.07-.23.08-.47.15-.69.03-.08.04-.2-.04-.3-.06-.09-.06-.21.02-.32.06-.1.1-.23.1-.35.01-.3.04-.62-.12-.9-.03-.05-.03-.12-.04-.18-.02-.39,0-.77-.07-1.16-.07-.37,0-.76-.02-1.15-.01-.37-.06-.74-.07-1.12-.01-.4-.14-.79-.08-1.2,0-.03,0-.06-.01-.08-.14-.13-.04-.3-.07-.45-.03-.15-.06-.29-.08-.44-.03-.32-.06-.64-.08-.96-.14-.14-.05-.32-.11-.47-.22-.61-.4-1.23-.71-1.86.08-.07.16-.16.26-.25,0,0,0-.07-.03-.11-.17-.22-.23-.5-.28-.76-.05-.25-.13-.41-.36-.53-.21-.11-.37-.42-.27-.58.08-.13.06-.25.06-.37,0-.23-.03-.46-.06-.68-.04-.31-.04-.64.06-.96.07-.22-.02-.47.07-.72.08-.21.04-.47.08-.72.05-.31.16-.57.32-.82.14-.22.25-.45.34-.69.11-.32.25-.64.39-.95.08-.17.19-.32.31-.51.12.09.26.17.38.28.15.15.33.27.52.28.37.03.69.16,1.03.3.38.15.77.29,1.2.27.05,0,.12-.02.16,0,.26.21.52-.01.76-.04.37-.05.9-.52,1.13-.84.17-.22.29-.46.43-.69.14-.25.26-.5.35-.77.12-.33.2-.68.32-1.02.1-.27.21-.55.28-.84.06-.28.16-.57.35-.81.2-.25.36-.53.48-.83.01-.04,0-.08.03-.11.17-.22.34-.44.5-.66.17-.23.14-.55.34-.77-.04-.18.15-.25.2-.39.05-.14.17-.25.27-.36.15-.17.32-.32.49-.49-.01-.08-.03-.18-.04-.32Zm-58.45,15.36c-.09-.06.11-.22.22-.16l.02.23s-.12,0-.23-.07Z" style="fill: #fff; fill-rule: evenodd; stroke-width: 0px;"/>
          </g>
        </g>
      </g>
    </g>
  </g>
</svg>